# xmcd
#
# Track frame offsets: 
#        150
#        12445
#        23317
#        34100
#        43913
#        55161
#        68784
#        80190
#        91559
#        103962
#        114242
#        127566
#        138678
#        150086
#        159894
#        172127
#        182220
#        194439
#        206159
#        218135
#
# Disc length: 2919 seconds
#
# Revision: 0
# Processed by: cddbd v1.5.2PL0 Copyright (c) Steve Scherf et al.
# Submitted via: ExactAudioCopyFreeDBPlugin 1.0
#
DISCID=090b6514
DTITLE=Charlie Rich - Too Many Teardrops (The Complete Groove and RCA 
DTITLE=Recordings) CD 2
DYEAR=2018
DGENRE=Country
TTITLE0=Too Many Teardrops
TTITLE1=There Won't Be Anymore
TTITLE2=One More Mountain (One More River)
TTITLE3=It's All Over Now
TTITLE4=The Grass is Always Greener
TTITLE5=Why, Oh Why?
TTITLE6=I Need a Thing Called Love
TTITLE7=It Just Goes to Show (You Never Know about Love)
TTITLE8=My Mountain Dew
TTITLE9=I Don't See Me In Your Eyes Anymore
TTITLE10=The Big Build Up
TTITLE11=She Called Me Baby
TTITLE12=I'm Gonna Sit Right Down and Write Myself a Letter
TTITLE13=Now Everybody Knows
TTITLE14=Ol' Man River
TTITLE15=Twelth of Never
TTITLE16=Gentleman Jim
TTITLE17=Is Goodbye that Easy to Say?
TTITLE18=(My Friends are Gonna Be) Strangers
TTITLE19=Christmas Greetings
EXTD=
EXTT0=
EXTT1=
EXTT2=
EXTT3=
EXTT4=
EXTT5=
EXTT6=
EXTT7=
EXTT8=
EXTT9=
EXTT10=
EXTT11=
EXTT12=
EXTT13=
EXTT14=
EXTT15=
EXTT16=
EXTT17=
EXTT18=
EXTT19=
PLAYORDER=
